<svg xmlns="http://www.w3.org/2000/svg" width="1536" height="1024"><path fill="#FEFDFD" d="M0 0h1536v1024H0z" id="svg-layer-0" style="pointer-events: all;"/><path fill="#121F30" d="M208 512c2.106 2.106 2.509 3.086 3.366 5.856l.764 2.437.82 2.68.877 2.82c.96 3.088 1.91 6.179 2.86 9.27l1.991 6.421c2.117 6.836 4.22 13.676 6.322 20.516l1.087 3.536Q233.069 588.26 240 611l.176-2.04q.915-10.538 1.85-21.074.347-3.93.687-7.86.49-5.655.998-11.311l.3-3.536c.512-5.632 1.167-10.817 2.989-16.179q3.219-.04 6.438-.062l3.62-.036C260 549 260 549 261 550c.278 2.09.493 4.189.684 6.29.06.646.12 1.294.18 1.96q.292 3.188.574 6.375.198 2.185.4 4.37.916 10.05 1.767 20.107l.27 3.177q.245 2.906.478 5.813l.217 2.611c.06.74.12 1.478.18 2.24.253 2.084.724 4.026 1.25 6.057l.87-2.84q4.101-13.37 8.207-26.737 2.11-6.87 4.216-13.74 2.04-6.653 4.085-13.305.773-2.514 1.543-5.03A1962 1962 0 0 1 291 531l.804-2.548q1.206-3.787 2.436-7.566l.748-2.356c.613-1.863 1.305-3.7 2.012-5.53l2-1a98 98 0 0 1 6.773 2.57l2.058.843c2.184.897 4.364 1.804 6.544 2.712q2.146.885 4.293 1.766c3.47 1.427 6.936 2.866 10.4 4.308q2.736 1.133 5.479 2.252l3.191 1.31 2.752 1.124c9.407 4.177 15.49 10.186 19.627 19.679 3.699 10.924 4.11 22.078 4.84 33.51q.228 3.329.46 6.656.48 6.932.93 13.865c.387 5.934.792 11.867 1.204 17.8q.475 6.85.934 13.703.222 3.285.447 6.568.308 4.566.602 9.134l.19 2.75c.39 6.22.39 6.22-.724 8.45a204589 204589 0 0 1-100.072.492q-16.68.08-33.357.167-17.111.089-34.223.166-9.612.043-19.224.096-9.043.049-18.086.086-3.322.014-6.646.035-4.53.026-9.059.04l-2.668.02c-4.026.008-7.736-.088-11.665-1.102-1.242-4.294-.854-8.288-.503-12.693l.197-2.658c.217-2.903.443-5.805.67-8.708l.46-6.077q.485-6.38.981-12.758.631-8.13 1.24-16.26.476-6.284.961-12.568l.456-5.988c2.836-37.495 2.836-37.495 14.538-48.29 7.998-5.855 17.119-8.847 26.375-12.062q4.295-1.511 8.586-3.036l2.079-.735C196.12 517 202.077 514.57 208 512M510.563 473.973c10.47 8.834 16.603 20.426 18.437 34.027 1.282 16.6-2.587 31.015-12.738 44.27-7.92 8.87-20.138 13.981-31.832 14.94-11.237.417-21.408-2.424-30.43-9.21l-5-5-1 48h-22V467h22l1 13 2.813-3.625c15.12-17.192 41.679-15.544 58.75-2.402" id="svg-layer-1" style="pointer-events: all;"/><path fill="#FDB511" d="M1101 422v142c-5.437 1.812-11.365.465-17 0l-1-14-2.875 3.625c-7.398 8.393-17.014 12.6-28.066 13.656-11.701.366-21.523-2.536-31.059-9.281l-1.93-1.336c-9.506-7.309-14.517-19.234-17.07-30.664-1.49-15.72.193-31.13 10.207-43.898L1014 480l1.512-1.914c7.903-9.038 19.826-13.252 31.52-14.07 12.156-.048 22.464 3.577 31.523 11.52C1080 477 1080 477 1082 480c1.113-19.339 1.108-38.638 1-58q3.938-.29 7.875-.562l2.262-.17c5.636-.381 5.636-.381 7.863.732" id="svg-layer-2" style="pointer-events: all;"/><path fill="#121F30" d="M787 420h22l1 59 6-7c2.125-1.707 2.125-1.707 4-2.812l1.875-1.145c8.662-4.251 19.702-5.445 29.043-2.828 9.461 3.568 16.488 8.962 20.894 18.16 4.342 9.81 4.463 19.429 4.383 29.941l-.008 4.401a3007 3007 0 0 1-.05 11.496c-.02 3.922-.03 7.844-.04 11.766-.02 7.673-.056 15.347-.097 23.021h-22l-.028-5.425q-.055-8.933-.156-17.865-.062-5.409-.087-10.818-.024-5.233-.097-10.465c-.022-1.96-.024-3.92-.026-5.88-.14-8.65-.821-17.568-7.043-24.11-7.195-4.035-14.966-5.008-23.012-2.75-6.208 2.838-10.321 7.696-12.927 14.001-1.43 5.294-1.109 10.894-1.136 16.34q-.026 2.036-.054 4.072c-.047 3.553-.077 7.105-.104 10.658-.03 3.633-.076 7.267-.121 10.9A5326 5326 0 0 0 809 564h-22z" id="svg-layer-3" style="pointer-events: all;"/><path fill="#FDB511" d="m1171.813 464.563 2.65.025c12.728.33 21.41 4.487 30.47 13.29C1216.644 490.344 1218 504.235 1218 521h-76c6.694 21.42 6.694 21.42 17.125 26.938 9.15 4.311 18.701 3.969 28.258 1.113 5.822-2.338 10.018-5.971 13.617-11.051 5.405 1.52 8.985 5.274 13 9-5.92 10.622-15.093 15.077-26.273 18.746-13.49 3.636-28.175 1.326-40.352-5.25-10.588-6.67-18.092-16.738-21.715-28.734-3.01-17.153-1.466-33.785 8.496-48.328 9.32-12.302 22.203-19.062 37.657-18.872M1299 469l2.441 1.285c7.816 4.623 12.12 11.206 14.916 19.777 1.4 6.4 1.003 13.048.936 19.567q-.009 2.402-.013 4.804c-.011 4.187-.04 8.374-.074 12.561-.03 4.284-.044 8.568-.06 12.852q-.05 12.578-.146 25.154-3.72-.171-7.437-.375c-.708-.03-1.415-.062-2.143-.094-1.812-.104-3.618-.31-5.42-.531-1.148-2.296-1.308-4.077-1.562-6.625l-.254-2.477L1300 553l-1.469 1.61c-8.707 9.175-17.403 12.363-29.968 12.702-9.899-.195-17.947-2.87-25.563-9.312-6.611-7.16-7.456-14.787-7.316-24.293.544-6.377 2.551-10.608 6.629-15.457 10.035-8.402 19.334-11.248 32.492-11.566l2.194-.063q3.438-.096 6.876-.183l4.688-.131q5.718-.16 11.437-.307a543 543 0 0 0-.363-5.719l-.205-3.217c-.856-6.07-3.797-9.762-8.495-13.502-7.328-3.898-16.875-3.684-24.863-1.914-6.07 2.21-10.527 5.83-15.074 10.352-3.215-1.408-5.322-3.103-7.75-5.625l-1.86-1.914L1240 483c3.218-7.447 10.06-11.884 17.313-14.937 12.678-4.89 29.537-5.73 41.687.937M292.79 317.883C307.881 329.425 318.18 345.04 321 364c1.041 17.034-1.23 33.86-12.14 47.719-3.375 3.81-6.95 7.373-10.61 10.906-8.714 8.694-11.367 19.208-11.844 31.316-.515 2.612-1.265 3.502-3.406 5.059-1.937.434-1.937.434-4 .438l-2.062.058C275 459 275 459 273.278 457.238c-3.744-6.559-.955-15.37.826-22.275 3.054-10.701 9.372-17.634 17.187-25.198C301.78 399.49 306.34 387.113 306.5 372.5c-.177-14.781-5.127-26.853-15.187-37.75C279.555 323.654 265.759 319.779 250 320c-13.835 1.033-25.472 6.394-35.262 16.285-7.766 9.098-12.581 19.8-13.738 31.715l-.215 2.191c-.64 13.922 4.37 27.733 13.653 37.997L219 413c10.344 11.837 15.068 23.953 15.363 39.555-.44 2.967-1.255 4.327-3.363 6.445-5.98.748-5.98.748-8.875-1.375-2.054-2.966-2.315-5.311-2.617-8.88-1.19-12.923-5.535-21.365-15.047-30.32-6.739-6.641-11.058-14.673-14.461-23.425l-.973-2.367c-5.51-16.045-2.703-34.771 4.223-49.82 9.202-17.11 23.314-28.645 41.75-34.813 20.045-5.574 40.652-1.686 57.79 9.883" id="svg-layer-4" style="pointer-events: all;"/><path fill="#121F30" d="M759.594 476.25c6.785 6.528 6.785 6.528 7.406 10.75a2392 2392 0 0 1-5.187 3.813l-2.918 2.144c-5.249 3.704-5.249 3.704-7.895 5.043-3.298-1.1-3.668-1.64-5.625-4.312-4.406-5.223-8.96-7.265-15.715-8.102-9.103-.376-15.843 1.135-22.722 7.246C700.038 500.119 698 508.09 698 518c.775 8.201 3.135 15.706 9.375 21.313 6.899 5.424 13.86 7.567 22.625 6.687 6.916-1.594 13.285-4.194 17.375-10.25L749 533c2.883.6 4.997 1.451 7.453 3.066l1.875 1.221 1.922 1.275 1.969 1.288q2.395 1.569 4.781 3.15c-1.275 7.265-8.152 12.615-13.906 16.688-11.875 7.444-25.535 9.083-39.132 6.183-13.428-3.192-24.178-9.97-31.817-21.726-7.945-14.85-9.114-30.55-4.438-46.567 4.199-12.04 12.82-22.177 24.106-28.039 19.242-8.669 41.517-7.397 57.78 6.711M631 437l1 29 29 1 .563 8.938c.06.93.122 1.86.185 2.82l.13 2.207.144 2.27C662 485 662 485 661 486c-2.219.088-4.44.107-6.66.098l-2.014-.005c-2.13-.005-4.259-.018-6.389-.03q-2.16-.009-4.322-.014-5.308-.017-10.615-.049.14 10.062.317 20.123.058 3.42.105 6.841c.046 3.284.104 6.568.164 9.852l.035 3.073c.112 5.42.6 9.984 2.379 15.111l1 3c7.078 3.078 14.42 2.031 21.688-.062L659 543c1.754 3.913 2.526 7.574 3.125 11.813l.508 3.519L663 561c-10.95 5.57-22.452 7.771-34.477 4.281-7.324-2.92-13.542-7.562-16.96-14.781-3.154-7.579-2.698-15.725-2.66-23.777 0-1.167.002-2.333.004-3.535.005-3.709.018-7.417.03-11.125q.009-3.782.014-7.565.017-9.249.049-18.498h-17v-19l9.863-.488C605 466 605 466 606.855 464.645c2.026-2.911 2.3-5.657 2.461-9.094l.127-2.569.12-2.67.13-2.705q.159-3.303.307-6.607 4.968-1.001 9.938-2l2.865-.578 2.724-.547 2.524-.508C630 437 630 437 631 437" id="svg-layer-5" style="pointer-events: all;"/><path fill="#FEFDFD" d="M1070.746 485.883c7.456 6.181 11.77 13.511 13.254 23.117.764 11.071-.042 21.417-7.328 30.219-7.032 7.491-13.942 11.657-24.36 12.031-8.682-.104-16.535-2.653-22.867-8.746-8.179-8.81-9.97-18.877-9.71-30.582.66-9.767 3.935-16.787 10.757-23.79 11.85-10.077 27.399-11.063 40.254-2.25" id="svg-layer-6" style="pointer-events: all;"/><path fill="#FDB511" d="M1406.16 473.535 1408 475l1.809 1.434C1411 478 1411 478 1410.91 479.922c-1.122 2.562-2.585 4.268-4.473 6.328l-1.94 2.14L1403 490c-3.61-.696-5.47-2.091-8.145-4.648-5.343-3.893-10.414-4.838-16.918-4.727l-2.064-.035c-5.496.032-9.164 1.635-13.686 4.598-1.982 3.025-2.284 6.28-2.187 9.812 1.524 4.192 3.948 5.851 7.78 7.979 4.459 2.05 9.24 3.138 13.97 4.396 12.135 3.407 22.93 6.594 30.25 17.625 3.813 6.901 4.017 14.047 1.938 21.563-3.368 8.865-9.525 13.403-17.97 17.25-13.23 5.292-27.465 4.27-40.62-.844-6.419-2.928-11.318-7.073-16.348-11.969.505-4.08 2.5-5.663 5.563-8.25l2.503-2.14L1349 539l2.938 2.688c9.972 8.553 19.3 10.063 32.092 9.491 4.235-.385 6.596-1.615 9.97-4.179 3.002-4.003 3.293-7.174 2.91-11.973-1.984-4.419-5.946-6.617-10.215-8.433l-3.57-1.094-1.948-.617c-3.45-1.087-6.92-2.1-10.396-3.098-10.53-3.067-19.287-6.535-25.781-15.785-3.271-6.589-3.25-15.536-1.277-22.582 3.783-8.01 11.336-14.21 19.59-17.23 14.933-3.968 30.246-1.5 42.847 7.347" id="svg-layer-7" style="pointer-events: all;"/><path fill="#FEFDFD" d="M490.563 487.063C498.15 491.616 503.598 497.357 506 506c1.903 11.277.96 20.037-5.238 29.703-4.771 6.22-11.127 9.757-18.762 11.297-8.938 1.175-17.677-1.13-24.875-6.625-5.263-4.947-8.913-12.716-9.328-19.887-.194-10.368.57-18.014 7.203-26.488 9.301-9.487 23.22-12.673 35.563-6.937" id="svg-layer-8" style="pointer-events: all;"/><path fill="#121F30" d="M551 467h22v97h-22z" id="svg-layer-9" style="pointer-events: all;"/><path fill="#FDB511" d="M240 375c3.898 2.14 6.646 4.233 9 8 .512 2.578.512 2.578.688 5.25l.199 2.703L250 393h7l.078-1.758c.479-6.59 2.021-10.673 7.11-15.18 4.165-1.573 7.596-1.514 11.812-.062 3.828 2.833 5.657 5.951 7.125 10.438-.165 4.688-1.22 7.863-4.125 11.562-4.228 3.543-8.363 4.19-13.777 4.094l-2.973-.041L260 402l.02 2.03q.097 10.438.145 20.876.022 3.9.061 7.796c.037 3.731.054 7.462.067 11.193.015 1.165.03 2.33.047 3.532v3.275l.02 2.887c-.424 2.838-1.09 3.714-3.36 5.411-1.937.434-1.937.434-4 .438l-2.062.058c-2.806-.718-3.453-2.055-4.938-4.496-.36-2.493-.36-2.493-.34-5.32v-3.214l.047-3.45.013-3.548c.017-3.74.054-7.479.093-11.218q.022-3.803.04-7.605.052-9.322.147-18.645l-1.881.023-2.463.019-2.444.023c-4.064-.12-6.977-1.714-10.212-4.065-2.955-3.25-4.234-5.732-4.437-10.062.617-5.555 1.965-7.728 6.25-11.25 3.567-1.89 5.223-2.349 9.187-1.688M959 467h18v97c-3.8.95-6.796 1.134-10.687 1.125l-3.512.008C960 565 960 565 959 564a253 253 0 0 1-.114-9.018v-2.867c0-3.144.009-6.288.016-9.431l.005-6.52q.006-8.6.024-17.198.014-8.768.02-17.534c.01-11.478.029-22.955.049-34.432" id="svg-layer-10" style="pointer-events: all;"/><path fill="#FEFDFD" d="m1172.438 479.563 2.272.018c8.1.23 13.204 3.008 19.29 8.419 3.708 5.817 6.845 12.018 7 19-1 1-1 1-3.284 1.12l-3.062-.006h-3.458l-3.762-.016-3.83-.005q-5.047-.007-10.096-.024-5.147-.014-10.295-.02-10.106-.017-20.213-.049c-1.632-3.263-.142-5.98.922-9.332 3.098-7.668 8.925-13.556 16.242-17.277 4.096-1.695 7.88-1.89 12.274-1.829M1277.05 519.902l1.997.005c2.089.005 4.177.018 6.265.03q2.135.009 4.268.014 5.21.017 10.42.049c.082 2.376.14 4.749.188 7.125l.076 2.016c.097 6.617-2.313 11.44-6.612 16.406-6.843 6.019-15.244 7.786-24.09 7.668-5.494-.46-9.317-2.156-13.5-5.715-3.558-4.313-3.41-8.393-3.332-13.773.392-3.958 1.5-5.888 4.27-8.727 6.46-4.18 12.413-5.13 20.05-5.098" id="svg-layer-11" style="pointer-events: all;"/><path fill="#121F30" d="M569.25 420.188c3.986 2.626 6.24 5.281 7.75 9.812.397 5.265-.204 8.507-3 13-2.854 3.3-4.839 4.773-9.27 5.238-5.803.17-9.186-.248-13.73-4.238-3.78-4.106-3.498-7.709-3.348-13.082.472-3.96 1.57-6.066 4.348-8.918 5.638-3.844 10.973-4.106 17.25-1.812M229.504 467.725l3.489-.029 3.784.003 3.871-.013q4.059-.01 8.118-.002c3.469.006 6.936-.01 10.404-.034 3.307-.018 6.613-.015 9.92-.013l3.778-.028 3.499.019 3.084-.002c2.549.374 2.549.374 4.413 1.706C285 471 285 471 284.813 474.062 284 477 284 477 282 479c-2.384.26-2.384.26-5.412.275l-3.428.029-3.719-.003-3.803.013q-3.99.01-7.977.002c-3.408-.006-6.815.01-10.223.034-3.249.018-6.498.015-9.747.013l-3.712.028-3.438-.019-3.03.002C225 479 225 479 223.173 477.668c-1.799-2.558-1.496-4.635-1.173-7.668 2.635-2.635 3.827-2.258 7.504-2.275M918 537c4.383 2.191 7.2 4.402 9 9 .684 5.043.574 8.83-1.687 13.438-3.623 4.014-6.277 5.715-11.688 6-4.928-.19-7.698-1.453-11.625-4.438-2.987-4.336-3.558-7.792-3-13 3.386-9.088 9.833-12.111 19-11M230.428 484.725l3.438-.029 3.728.003 3.81-.013q3.996-.01 7.99-.002c3.417.006 6.833-.01 10.25-.034 3.254-.018 6.508-.015 9.762-.013l3.728-.028 3.438.019 3.037-.002L282 485c2 3 2 3 1.938 6.063C283 494 283 494 280.779 495.173c-2.9.863-5.161 1.053-8.18 1.01l-3.195-.032-3.416-.069-3.529-.054q-3.686-.062-7.37-.14c-3.773-.075-7.545-.124-11.318-.171q-3.579-.065-7.158-.135l-3.434-.038-3.166-.08-2.794-.052L225 495c-2.15-3.224-2.383-4.267-2-8 2.622-2.622 3.772-2.258 7.428-2.275M749 636l3 2 1-2h3c1.944 25.508 1.944 25.508-2.437 31.125-4.476 3.275-8.103 3.58-13.563 2.875-2.362-1.097-3.965-2.33-6-4l3-3 2.625 1.563c3.84 1.635 5.464 1.828 9.375.437 2.005-2.628 2.956-4.868 4-8l-1.727.973c-3.724 1.683-7.272 1.726-11.273 1.027-3.07-1.714-5.405-3.809-7-7-.35-5.34-.468-8.665 3-13 3.49-3.893 8.1-3.695 13-3M1331.5 635.875l2.344.055 2.156.07h7c.145 4.562.234 9.124.313 13.688l.126 3.92.05 3.779c.025 1.147.052 2.293.079 3.475-.74 4.089-2.419 5.53-5.568 8.138-3.462 1.731-7.215 1.488-11 1-2.362-1.097-3.965-2.33-6-4l3-3 2.5 1.563c4.49 1.843 6.796 1.329 11.5.437v-8l-2 2c-4.48.757-8.018.585-11.937-1.75-3.054-3.331-3.934-5.093-4.438-9.625.444-4.296 1.67-6.303 4.375-9.625 3.17-2.113 3.892-2.233 7.5-2.125M587 625h4v35h-4l-1-2-3 2c-5.299.427-8.734.513-13-3-2.89-4.627-2.797-9.724-2-15 2.438-3.125 2.438-3.125 5-5l1-1c1.96-.168 1.96-.168 4.375-.187l2.398-.043C583 636 583 636 586 638zM506 625h4v35l-4-1c-2 0-2 0-4 1-5.293.347-8.734.514-13-3-2.745-4.44-2.542-8.933-2-14 1.613-3.686 2.63-4.754 6-7 2.41-.266 2.41-.266 5.063-.25l2.66-.016C503 636 503 636 505 638zM260.097 521.46c4.066 1.153 5.91 4.105 7.97 7.571L269 531a1467 1467 0 0 1-2.875 5.875l-1.617 3.305C263 543 263 543 261 545c-5.154.808-9.888.917-15 0-3.045-2.575-4.433-5.385-6-9l-2-3c.488-3.81 2.068-6.702 4.598-9.547 5.158-3.12 11.667-2.824 17.499-1.992M1384 637c3.16 3.327 4.897 5.658 5.25 10.25-.338 5.064-1.537 8.238-5.375 11.625-4.042 1.582-7.597 1.952-11.875 1.125-3.068-1.722-5.403-3.806-7-7-.607-4.825-.982-9.467 2.063-13.5 5.535-4.71 10.267-5.394 16.937-2.5" id="svg-layer-12" style="pointer-events: all;"/><path fill="#FDB511" d="M972 424c3.104 1.61 5.217 3.003 7.375 5.75 1.29 4.643 1.29 8.676-.562 13.063-3.255 3.927-5.655 5.058-10.75 5.625-4.26-.17-6.81-1.65-10.063-4.438-2.59-3.415-2.36-6.832-2-11 1.271-3.48 2.376-5.465 5.188-7.875 3.675-1.47 6.944-1.814 10.812-1.125M258 250c2.43 3.312 2.258 6.595 2.266 10.594l.007 3.87-.012 2.008c-.011 2.021 0 4.042.012 6.063l-.007 3.871-.007 3.541c-.251 2.963-.527 4.654-2.259 7.053-3.375 1.063-3.375 1.063-7 1-2.617-2.54-3.867-4.224-4.486-7.843l.025-3.087.012-3.41.074-3.535.004-3.512c.06-5.847.176-11.15 2.371-16.613 3.18-1.59 5.624-.784 9 0" id="svg-layer-13" style="pointer-events: all;"/><path fill="#121F30" d="m242.402 499.867 2.526-.003q2.647 0 5.293.006 4.053.005 8.105-.007 2.57 0 5.139.004l2.453-.006c3.283.014 5.945.093 9.082 1.139-1.157 4.5-3.274 6.476-7.023 8.93-6.903 3.738-15.655 4.243-23.247 2.57-4.75-1.598-8.194-3.964-11.73-7.5-.875-2.312-.875-2.312-1-4 3.253-1.626 6.83-1.142 10.402-1.133" id="svg-layer-14" style="pointer-events: all;"/><path fill="#FDB511" d="M169 287c2.56 1.952 4.69 4.27 6.875 6.625q1.773 1.867 3.555 3.727l1.765 1.853c2.335 2.322 4.836 4.39 7.414 6.437C190 307 190 307 191.125 310.125 191 313 191 313 190 315.375c-3.013 2.448-5.214 1.996-9 1.625-2.615-1.74-2.615-1.74-5.023-4.164l-2.653-2.652-2.699-2.809-2.77-2.738c-7.575-7.71-7.575-7.71-7.855-13.637 2.551-3.729 4.564-4.822 9-4M346 287c1.875 1.125 1.875 1.125 3 3 .465 3.775.381 5.457-1.833 8.609l-2.55 2.57-2.789 2.813-1.47 1.433a257 257 0 0 0-4.366 4.403c-.928.92-1.856 1.84-2.812 2.79-.849.84-1.697 1.682-2.571 2.55-3.152 2.213-4.834 2.297-8.609 1.832-1.875-1.125-1.875-1.125-3-3-.465-3.775-.381-5.457 1.833-8.609l2.55-2.57 2.789-2.813 1.47-1.433a257 257 0 0 0 4.366-4.403l2.812-2.79c.849-.84 1.697-1.682 2.571-2.55 3.152-2.213 4.834-2.297 8.609-1.832M341 368c4.53-.61 9.092-.515 13.658-.501 2.268.001 4.533-.04 6.801-.085q2.16-.008 4.318-.008l3.977-.021c3.246.615 3.246.615 5.24 2.984C376 373 376 373 375.312 375.687 374 378 374 378 372 380c-4.257.399-8.53.329-12.803.316a474 474 0 0 0-6.367.045q-2.022.004-4.045.002l-3.722.01C342 380 342 380 340.095 378.664c-1.698-2.58-1.408-4.659-1.095-7.665zM147.453 367.678l2.26.006c2.278.003 4.556-.02 6.834-.045q2.164-.004 4.328-.002l3.992-.01L168 368c2.314 3.47 2.51 4.918 2 9-2.32 2.397-3.738 2.967-7.069 3.388l-3.56.01-3.885.012-2.013-.019c-2.033-.016-4.063 0-6.096.02l-3.88-.013-3.558-.01C137 380 137 380 135.114 378.698c-1.853-2.825-1.41-5.434-1.114-8.698 3.502-3.502 8.718-2.304 13.453-2.322" id="svg-layer-15" style="pointer-events: all;"/><path fill="#121F30" d="M1065 636h4l1 2 2-2c4.946-.324 8.49-.255 13 2l2-2c2.023-.371 2.023-.371 4.375-.437l2.336-.122c2.289.559 2.289.559 4.562 2.473 2.435 4.352 2.167 8.006 1.977 12.899l-.055 2.677c-.047 2.17-.118 4.34-.195 6.51h-4l-1-20h-7c-2.354 2.354-2.279 2.93-2.414 6.133l-.117 2.441-.094 2.551-.117 2.574c-.095 2.1-.177 4.2-.258 6.301h-4l-.148-3.613-.227-4.7c-.03-.785-.062-1.57-.094-2.38l-.117-2.295-.095-2.11C1080 643 1080 643 1078 640c-3.625-.187-3.625-.187-7 0-1.108 4.053-1.337 8.071-1.562 12.25l-.131 2.258q-.158 2.745-.307 5.492l-4-1zM849 637c4.278 4.046 4.096 5.671 5 12h-19l2 6c7.935 1.323 7.935 1.323 12-1 2.25.375 2.25.375 4 1-2.085 2.69-3.718 4.74-7.16 5.438-4.674.124-8.219-.243-11.84-3.438-3.108-4.352-3.384-7.768-2.566-12.883.864-3.23 2.046-4.928 4.566-7.117 4.98-2.121 8.136-2.486 13 0M615 637c3.969 4.366 4 5.857 4 12h-18l3 6c3.5 1 3.5 1 7 1l3-2c2.188.375 2.188.375 4 1-1 3-1 3-2.79 4.16-3.747 1.424-7.272 1.528-11.21.84-3.07-1.714-5.405-3.809-7-7-.415-4.506-.485-8.66 1.063-12.937C602.95 634.86 608.757 633.79 615 637M1409 625c2.625 1.5 2.625 1.5 4 4 .698 4.008.612 6.98-1.5 10.5l-1.5 1.5 2.5 1.938c2.966 3.633 3.183 5.427 2.934 9.972-.626 3.017-1.956 4.34-4.434 6.09-2.957 1.478-5.742 1.06-9 1l-1-4 2.75.25c3.25-.25 3.25-.25 5.688-1.812C1411 652 1411 652 1410.75 648.25L1410 645l-8-1v-4l2.375-.812C1407 638 1407 638 1409 635c-.54-4.54-.54-4.54-2-6-2.937-.187-2.937-.187-6 0-2.792 2.792-2.312 4.632-2.414 8.54l-.117 3.944-.094 4.141-.117 4.164q-.142 5.106-.258 10.211h-4q-.074-6.085-.11-12.17a782 782 0 0 0-.04-4.138 818 818 0 0 1-.045-5.958l-.032-3.618c.22-3.027.521-4.642 2.227-7.116 4.248-2.832 8.015-2.636 13-2M1202 637c3.969 4.366 4 5.857 4 12h-18c2 5 2 5 5 7 3.758-.342 7.367-.983 11-2l1 3c-3.849 2.98-7.043 3.572-11.777 3.43-3.807-.736-5.58-2.655-8.223-5.43-1.847-3.695-1.338-7.959-1-12 1.406-3.887 2.639-4.78 6.188-6.937 4.575-1.276 7.573-1.243 11.812.937M1121 636c3.098 2.191 3.804 3.41 5 7 .07 2.739.094 5.45.063 8.188l-.014 2.271q-.02 2.77-.049 5.541l-4 1-1-2-3 2c-6.88.546-6.88.546-10.437-1.187-2.025-2.349-2.49-3.71-2.563-6.813 2.194-4.597 2.194-4.597 5-6 1.87-.228 3.747-.41 5.625-.562l3.04-.254L1121 645l-1-4c-4.716-.925-7.673-1.23-12 1l-1-3c4.373-3.816 8.404-3.857 14-3M534 637c2.438 2.188 2.438 2.188 4 5v7h-18c2 5 2 5 3.75 6.375 4.143 1.15 8.191-.282 12.25-1.375v4c-4.32 2.448-8.124 2.705-13 2-3.059-1.757-4.514-3.227-6.375-6.187-1.18-5.31-.651-10.027 2.063-14.75 5.036-4.493 9.18-4.675 15.312-2.063M1298 636c2.87 1.794 4.491 2.983 6 6v7h-18l3 6c4.934 1.49 8.291.952 13-1v4c-4.316 2.431-8.13 2.843-13 2-3.572-1.927-5.696-4.087-7-8-.502-6.119-.078-9.107 4-14 4.019-2.68 7.276-2.696 12-2M695 636c2.576 1.885 3.597 3.193 5 6 .072 2.884.093 5.742.063 8.625l-.014 2.43q-.02 2.972-.049 5.945l-4 1-1-2-3 2c-6.978.665-6.978.665-10.5-1.625-1.97-3.118-2.18-4.752-1.5-8.375 1.813-2.375 1.813-2.375 5-4 3.692-.322 7.304-.233 11 0-1.875-4.875-1.875-4.875-3-6-3.948-.263-6.604-.09-10 2l-2-3c4.369-3.813 8.408-3.865 14-3M640 636c3.063 2 3.063 2 5 5l1 8h-18c2 5 2 5 5 7 3.758-.342 7.367-.983 11-2l1 3c-3.849 2.98-7.043 3.572-11.777 3.43-3.807-.736-5.58-2.655-8.223-5.43-1.842-3.684-1.362-7.97-1-12 3.224-7.37 8.625-8.117 16-7M476 636c2.756 2.182 4.436 3.872 6 7v6h-18l3 6c4.934 1.49 8.291.952 13-1v4c-4.316 2.431-8.13 2.843-13 2-3.572-1.927-5.696-4.087-7-8-.502-6.119-.078-9.107 4-14 4.003-2.668 7.293-2.834 12-2M985 636h4l5 17 6-17 5 1 5 16 6-17 4 1-7 22-5 1q-1.259-3.404-2.5-6.812l-.723-1.948c-1.048-2.89-1.777-5.14-1.777-8.24h-2l-.332 1.941c-.993 5.415-2.293 10.092-4.668 15.059l-5-1c-1.01-3.08-2.006-6.165-3-9.25l-.867-2.645-.82-2.558-.762-2.349C985 640 985 640 985 636M927.7 638.473c2.044 3.973 1.614 7.883 1.487 12.277l-.04 2.691A538 538 0 0 1 929 660l-1.875-.5C925 659 925 659 923 659l-1 1c-6.992.7-6.992.7-11.062-2.125-1.938-2.875-1.938-2.875-2-6 1.231-3.333 2.032-4.115 5.062-5.875 2.797-.293 2.797-.293 5.75-.187l2.984.082L925 646c-.375-2.437-.375-2.437-1-5-2.78-1.39-4.919-1.185-8-1-2.375 1-2.375 1-4 2l-2-3c5.409-4.608 11.942-5.517 17.7-.527M795 625h4l1 21c7-7 7-7 9-10 3.125-.187 3.125-.187 6 0l-1.242 1.39-1.633 1.86-1.617 1.828c-1.488 1.896-2.511 3.735-3.508 5.922l1.969 2.59 2.531 3.347c.43.564.859 1.128 1.3 1.71 3.2 4.24 3.2 4.24 3.2 5.353-2.262.273-2.262.273-5 0-2.02-1.898-2.02-1.898-3.812-4.375l-1.833-2.46C804 651 804 651 804 649c-1.937 1-1.937 1-4 3-.665 2.7-.817 5.206-1 8h-4zM1158 625h4l1 12 3.188-1.125c4.055-.93 5.331-1.002 8.812 1.125 2.063 1.87 2.924 3.327 3.239 6.106.056 2.554.022 5.09-.052 7.644l-.04 2.691A538 538 0 0 1 1178 660h-4l-1-20c-7 0-7 0-10 2-.432 1.88-.432 1.88-.512 4.133l-.107 2.441-.069 2.551-.103 2.574c-.083 2.1-.147 4.2-.209 6.301h-4z" id="svg-layer-16" style="pointer-events: all;"/><path fill="#FEFDFD" d="M1377 638.375c4.107.856 5.554 2.244 8 5.625.669 4.162.452 6.2-1.625 9.875-2.913 2.607-4.479 3.125-8.375 3.125-4.565-2.13-4.565-2.13-6-5-.69-7.025-.69-7.025 2.125-11 2.875-2 2.875-2 5.875-2.625" id="svg-layer-17" style="pointer-events: all;"/><path fill="#121F30" d="M1211 636h4l1 2 3-2c2.156-.3 2.156-.3 4.5-.312l2.344-.051c2.685.452 3.515 1.226 5.156 3.363.922 2.766 1.118 4.383 1.098 7.23l-.01 2.432-.025 2.525-.014 2.561q-.02 3.126-.049 6.252h-4l-.113-3.867q-.099-2.505-.2-5.008l-.068-2.55-.107-2.442-.08-2.254C1227 642 1227 642 1224 640c-3.062.188-3.062.188-6 1-2.48 3.72-2.444 6.865-2.625 11.188l-.117 2.271A769 769 0 0 0 1215 660l-4-1zM936 636h4l1 2 2-2c3.037-.504 5.958-.455 9 0 2.502 1.876 3.62 3.239 5 6 .083 1.375.107 2.755.098 4.133l-.01 2.441-.025 2.551-.014 2.574q-.02 3.15-.049 6.301h-4l-.113-3.613q-.099-2.35-.2-4.7l-.068-2.38-.107-2.295-.08-2.11c-.555-2.445-1.48-3.368-3.432-4.902-2.5-.437-2.5-.437-5 0-3.149 2.95-3.409 5.837-3.62 10.04l-.067 2.21-.104 2.258c-.082 1.83-.147 3.661-.209 5.492l-4-1zM724 637c2.137 1.664 2.917 2.468 3.34 5.177-.015.822-.03 1.644-.047 2.491l-.03 2.705c-.024.929-.05 1.858-.076 2.814l-.04 2.85A612 612 0 0 1 727 660l-4-1-1-19c-7 0-7 0-8.906 1.25-1.29 2.063-1.515 3.339-1.606 5.762l-.107 2.295-.068 2.38-.104 2.417c-.082 1.965-.147 3.93-.209 5.896h-4v-24l5 1 2.938-1.062c3.828-1.173 5.48-.61 9.062 1.062M889 637c2.136 3.204 2.242 3.996 2.195 7.668l-.02 2.705-.05 2.814-.027 2.85A917 917 0 0 1 891 660l-4-1 .035-2.887.028-3.8.035-3.762c-.083-3.013-.39-5.634-1.098-8.551-6.504-.368-6.504-.368-8.698 1.261-1.55 2.07-1.717 3.189-1.814 5.75l-.107 2.296-.068 2.38-.104 2.417c-.082 1.965-.147 3.93-.209 5.896h-4v-24h4v2l3.063-1.625c4.14-1.784 6.78-1.168 10.937.625" id="svg-layer-18" style="pointer-events: all;"/><path fill="#FEFDFD" d="M503 640c2.287 1.689 2.923 2.544 3.398 5.375l-.023 2.625.023 2.625c-.473 2.82-1.135 3.678-3.398 5.375-3.656 1.113-5.315 1.32-8.812-.312-2.421-1.868-3.057-2.715-3.461-5.711-.272-6.284-.272-6.284 2.336-9.602 3.825-1.79 5.903-1.495 9.937-.375M584 640c2.24 1.807 2.864 3.07 3.277 5.902.15 3.223-.043 5.561-1.34 8.535-2.976 2.401-5.15 2.628-8.937 2.563-2.937-1.875-2.937-1.875-5-5-.69-3.154-.722-5.85 0-9 3.565-4.537 6.633-4.59 12-3M745.063 638.5c3.366.573 4.727.88 6.937 3.5 1.087 4.495 1.574 6.715-.312 10.938-2.163 2.643-3.114 2.985-6.5 3.437C742 656 742 656 739.125 653.938 737 651 737 651 736.375 647.5c.952-5.329 3.248-8.112 8.688-9M1332.063 638.438c2.937.562 2.937.562 5.312 2 2.4 3.783 2.534 7.206 1.625 11.562-2.062 2.625-2.062 2.625-5 4-3.78 0-6.007-.167-8.937-2.625-1.522-3.401-1.58-5.688-1.063-9.375 2.475-3.421 3.883-4.795 8.063-5.562" id="svg-layer-19" style="pointer-events: all;"/><path fill="#121F30" d="m1142.875 635.75 2.617-.078c2.958.387 4.3 1.377 6.508 3.328l-1 3c-3.875-.875-3.875-.875-5-2-3.485-.387-5.376-.394-8.375 1.5-2.432 3.741-2.117 6.074-1.625 10.5 1.606 2.765 2.858 2.958 5.938 3.875 3.062.125 3.062.125 5.437-1.312L1149 653l4 2c-3.433 3.547-5.287 5.156-10.25 5.375-3.518-.028-5.5-.465-8.25-2.687-3.642-3.915-3.893-7.261-3.86-12.395.61-3.89 2.548-5.615 5.36-8.293 2.44-1.22 4.153-1.202 6.875-1.25M677 625v3l-6 1-1 7h6v3h-6v20l-4 1-1-20-4-1v-3h5l-.312-3.75c.006-3.431.131-4.032 2.437-6.812 3.485-1.743 5.182-1.469 8.875-.438M1263 636l3 2-1 3-1.898-.219-2.477-.281-2.46-.281C1256 640 1256 640 1254 640c.191 1.867.191 1.867 1 4 2.215 1.195 2.215 1.195 4.938 2.125 4.89 1.703 4.89 1.703 7.062 3.875.454 3.481.395 5.348-1.437 8.375-3.768 2.39-7.216 2.319-11.563 1.625-2.562-1.5-2.562-1.5-4-3l1-3 2.063 1c3.445 1.173 6.321 1.142 9.937 1v-5l-2.082-.55-2.73-.763-2.708-.738c-2.567-.982-3.805-1.796-5.48-3.949-.574-3.196-.28-4.548 1.438-7.312 3.694-2.433 7.246-2.372 11.562-1.688M450 627h4c.087 4.229.14 8.458.188 12.688l.076 3.63.029 3.506.048 3.222c-.393 3.406-1.303 5.22-3.341 7.954-4.02 2.68-7.276 2.695-12 2-3.062-1.875-3.062-1.875-5-4v-2l4-1 1 2c2.813.875 2.813.875 6 1 2.768-2.083 3.865-3.321 4.546-6.749l.063-3.11.098-3.38.043-3.511.09-3.559q.105-4.345.16-8.691M766 630h3l1 5 7 1v3l-7 1a609 609 0 0 0-.125 6.313l-.07 3.55C770 653 770 653 772 656c2.625.188 2.625.188 5 0l1 3c-3.05 1.525-5.642 1.236-9 1-2.018-1.51-2.87-2.428-3.432-4.901l-.08-2.11-.107-2.296-.068-2.38-.104-2.417c-.082-1.965-.147-3.93-.209-5.896l-4-1v-3h5zM821 625h4v34l-4 1zM557 627h4v33h-4zM1350 636l4 1 3-1a100 100 0 0 1 5 0v3l-7 2-1 18-4 1zM1036 636h3l1 2 3-2c2.688-.125 2.688-.125 5 0l-1 4-6 1-1 18-4 1zM1025 636h4v23l-4 1z" id="svg-layer-20" style="pointer-events: all;"/><path fill="#FEFDFD" d="M270.5 382.75c2.5.25 2.5.25 4.5 2.25-.25 3.563-.25 3.563-1 7-3.215 1.607-6.436 1.057-10 1 2.218-9.822 2.218-9.822 6.5-10.25M1122 649c-.318 2.946-.663 4.61-2.625 6.875-3.366 1.594-5.81.88-9.375.125-.625-2.375-.625-2.375-1-5 3.448-3.448 8.494-3.622 13-2M238.063 383.063C241 384 241 384 242.375 385.75c.698 2.513.77 4.654.625 7.25-6.625.25-6.625.25-10-2-.875-2.437-.875-2.437-1-5 1.686-2.975 2.641-3.007 6.063-2.937M917.383 648.805l2.742.07 2.758.055L925 649c.195 4.766.195 4.766-1.562 6.875-3.407 1.572-5.84.886-9.438.125-.625-2.375-.625-2.375-1-5 2-2 2-2 4.383-2.195M1198 639c2.375 1.813 2.375 1.813 4 4v3h-14l1-5c3.491-2.327 4.892-2.503 9-2M846 639c4 4 4 4 4 7h-15c2.474-6.185 4.398-7.943 11-7M1294.5 639.125c3.5.875 3.5.875 5.438 2.813C1301 644 1301 644 1301 646h-15c2.831-7.077 2.831-7.077 8.5-6.875M638 639c2.375 1.813 2.375 1.813 4 4v3h-14l1-5c3.491-2.327 4.892-2.503 9-2M611 639c2.375 1.25 2.375 1.25 4 3v4h-14c1.564-6.255 3.475-7.799 10-7M528.5 639.063c3.5.937 3.5.937 5.438 3.5L535 645c-1 1-1 1-4.16 1.098l-3.903-.035-3.91-.028L520 646c1.682-4.917 2.909-7.037 8.5-6.937M470.875 638.688c3.43.343 4.792.8 7.125 3.312v4h-14c2.745-6.864 2.745-6.864 6.875-7.312M688.383 648.805l2.742.07 2.758.055L696 649c-.352 2.606-.765 4.608-2.125 6.875-3.002 1.801-5.577.81-8.875.125-.625-2.375-.625-2.375-1-5 2-2 2-2 4.383-2.195" id="svg-layer-21" style="pointer-events: all;"/><path fill="#121F30" d="m1273 636 4 1c.157 7.716-.325 15.315-1 23h-3zM859 636h4v24l-4-1zM965 654l4 2c-.507 3.719-1.116 6.735-3 10h-3l.5-3.25c.5-3.75.5-3.75.5-7.75zM1274 625l3 1-1 5-4-1v-4zM1026 625l3 1-1 5-4-1c.875-3.875.875-3.875 2-5M861 625l3 2-1 4-4-1v-4zM685 626l4 2-1 3-5-1zM694 626l4 2-1 3h-4l-1-3z" id="svg-layer-22" style="pointer-events: all;"/><path d="M1275 640c2.09 4.18 2.166 4.804 1 9h-1zM675 636l1 3h-6c2-2 2-2 5-3M239 485h11v1h-11zM1395 640h1v8h-1zM1194 635l3 1-4 1zM630 486h1v6h-1zM1027 648h1v5h-1zM260 556h1v5h-1zM660 480h1v5h-1zM638 565l4 1ZM788 563l4 1ZM744 658l3 1ZM684 647h2l-1 2zM489 639l2 1-2 1zM1018 636l2 1-2 1zM632 484l3 1ZM691 477l2 1-2 1zM1331 658l2 1ZM1119 647l2 1ZM910 639l2 1ZM920 636l2 1Z" id="svg-layer-23" style="pointer-events: all;"/><path fill="#121F30" d="m1194 635 2 1Z" id="svg-layer-24" style="pointer-events: all;"/><path d="m857 563 2 1ZM806 563l2 1Z" id="svg-layer-25" style="pointer-events: all;"/></svg>